<svg xmlns="http://www.w3.org/2000/svg" version="1.1" viewBox="-5.0 -10.0 110.0 135.0">
 <path d="m93.656 49.422c0.44141-3.1289-0.66016-6.2852-2.9492-8.4297-6.7422-6.332-25.727-24.156-34.285-32.191-3.625-3.4023-9.2148-3.4023-12.836 0l-34.289 32.191c-2.2852 2.1445-3.3906 5.3008-2.9492 8.4297 1.0781 7.6719 3.7422 26.633 5.0664 36.062 0.66406 4.7422 4.6602 8.2656 9.3672 8.2656h13.453c5.2266 0 9.4609-4.3086 9.4609-9.625v-9.6211c0-1.7695 1.4141-3.207 3.1523-3.207h6.3086c1.7422 0 3.1562 1.4375 3.1562 3.207v9.6211c0 5.3164 4.2344 9.625 9.4609 9.625h13.449c4.7109 0 8.7031-3.5234 9.3672-8.2656z" fill-rule="evenodd"/>
<text x="0.0" y="117.5" font-size="5.0" font-weight="bold" font-family="Arbeit Regular, Helvetica, Arial-Unicode, Arial, Sans-serif" fill="#000000">Created by Mila Karmila</text><text x="0.0" y="122.5" font-size="5.0" font-weight="bold" font-family="Arbeit Regular, Helvetica, Arial-Unicode, Arial, Sans-serif" fill="#000000">from Noun Project</text></svg>