<svg xmlns="http://www.w3.org/2000/svg" xmlns:xlink="http://www.w3.org/1999/xlink" version="1.1" x="0px" y="0px" viewBox="0 0 100 125" style="enable-background:new 0 0 100 100;" xml:space="preserve"><path d="M27.23,26.18c-2.36,2.36-3.89,5.24-4.61,8.26c0.84-1.41,1.84-2.74,3.05-3.95c7.88-7.88,20.64-7.88,28.52,0  c0.64,0.64,1.2,1.31,1.74,2.01c-0.85-2.3-2.17-4.47-4.02-6.32C45.09,19.36,34.04,19.36,27.23,26.18z"/><path d="M62.97,56.46c0.09-0.13,0.18-0.24,0.24-0.37c8.05-11.44,6.98-27.29-3.24-37.5c-11.44-11.44-29.98-11.44-41.4,0  c-11.44,11.42-11.44,29.95,0,41.4c10.19,10.19,26.08,11.29,37.5,3.26c0.2-0.13,0.37-0.29,0.57-0.42c1.17-0.84,2.27-1.78,3.32-2.84  C61.1,58.86,62.09,57.69,62.97,56.46z M53.88,53.88c-8.08,8.06-21.15,8.06-29.2,0c-8.08-8.08-8.08-21.15,0-29.2  c8.05-8.08,21.13-8.08,29.2,0C61.94,32.73,61.94,45.81,53.88,53.88z"/><path d="M64.89,57.56c-0.04,0.07-0.09,0.13-0.13,0.2c-0.95,1.32-2,2.57-3.21,3.79c-1.17,1.17-2.35,2.18-3.61,3.06  c-0.13,0.09-0.26,0.2-0.4,0.29l20.51,23.06c2.73,2.73,7.17,2.73,9.9,0c2.73-2.73,2.73-7.15,0-9.9L64.89,57.56z"/><text x="0" y="115" fill="#000000" font-size="5px" font-weight="bold" font-family="'Helvetica Neue', Helvetica, Arial-Unicode, Arial, Sans-serif">Created by M.HABIBI</text><text x="0" y="120" fill="#000000" font-size="5px" font-weight="bold" font-family="'Helvetica Neue', Helvetica, Arial-Unicode, Arial, Sans-serif">from the Noun Project</text></svg>